<?xml version="1.0" encoding="us-ascii" standalone="no"?><svg xmlns="http://www.w3.org/2000/svg" xmlns:xlink="http://www.w3.org/1999/xlink" contentStyleType="text/css" height="322px" preserveAspectRatio="none" style="width:768px;height:322px;background:#FFFFFF;" version="1.1" viewBox="0 0 768 322" width="768px" zoomAndPan="magnify"><defs/><g><!--class Game--><g id="elem_Game"><rect fill="#F1F1F1" height="32" id="Game" rx="2.5" ry="2.5" style="stroke:#181818;stroke-width:0.5;" width="73" x="93.5" y="7"/><ellipse cx="108.5" cy="23" fill="#ADD1B2" rx="11" ry="11" style="stroke:#181818;stroke-width:1.0;"/><path d="M107.9688,29.9219 Q106.2188,29.9219 105.0781,29.1875 Q103.9531,28.4375 103.3906,27.0938 Q102.8438,25.7344 102.8438,23.9375 Q102.8438,21.9063 103.5,20.4531 Q104.1563,19 105.4375,18.2188 Q106.7188,17.4375 108.5938,17.4375 Q109.4844,17.4375 110.1563,17.625 Q110.8281,17.7969 111.5156,18.1406 L110.7031,20.1563 Q110.0781,19.8438 109.5313,19.7188 Q109,19.5938 108.5156,19.5938 Q107.3438,19.5938 106.6406,20.125 Q105.9375,20.6563 105.6406,21.6094 Q105.3438,22.5625 105.3438,23.8281 Q105.3438,25.8438 106.0625,26.8125 Q106.7813,27.7656 108.375,27.7656 Q108.9688,27.7656 109.5938,27.6094 Q110.2188,27.4531 111.0469,27.0781 L111.0469,29.2969 Q110.3125,29.6094 109.5156,29.7656 Q108.7344,29.9219 107.9688,29.9219 Z " fill="#000000"/><text fill="#000000" font-family="sans-serif" font-size="14" lengthAdjust="spacing" textLength="41" x="122.5" y="27.8467">Game</text></g><!--class Board--><g id="elem_Board"><rect fill="#F1F1F1" height="32" id="Board" rx="2.5" ry="2.5" style="stroke:#181818;stroke-width:0.5;" width="73" x="172.5" y="99"/><ellipse cx="187.5" cy="115" fill="#ADD1B2" rx="11" ry="11" style="stroke:#181818;stroke-width:1.0;"/><path d="M186.9688,121.9219 Q185.2188,121.9219 184.0781,121.1875 Q182.9531,120.4375 182.3906,119.0938 Q181.8438,117.7344 181.8438,115.9375 Q181.8438,113.9063 182.5,112.4531 Q183.1563,111 184.4375,110.2188 Q185.7188,109.4375 187.5938,109.4375 Q188.4844,109.4375 189.1563,109.625 Q189.8281,109.7969 190.5156,110.1406 L189.7031,112.1563 Q189.0781,111.8438 188.5313,111.7188 Q188,111.5938 187.5156,111.5938 Q186.3438,111.5938 185.6406,112.125 Q184.9375,112.6563 184.6406,113.6094 Q184.3438,114.5625 184.3438,115.8281 Q184.3438,117.8438 185.0625,118.8125 Q185.7813,119.7656 187.375,119.7656 Q187.9688,119.7656 188.5938,119.6094 Q189.2188,119.4531 190.0469,119.0781 L190.0469,121.2969 Q189.3125,121.6094 188.5156,121.7656 Q187.7344,121.9219 186.9688,121.9219 Z " fill="#000000"/><text fill="#000000" font-family="sans-serif" font-size="14" lengthAdjust="spacing" textLength="41" x="201.5" y="119.8467">Board</text></g><!--class Coordinate--><g id="elem_Coordinate"><rect fill="#F1F1F1" height="32" id="Coordinate" rx="2.5" ry="2.5" style="stroke:#181818;stroke-width:0.5;" width="108" x="7" y="283"/><ellipse cx="22" cy="299" fill="#ADD1B2" rx="11" ry="11" style="stroke:#181818;stroke-width:1.0;"/><path d="M21.4688,305.9219 Q19.7188,305.9219 18.5781,305.1875 Q17.4531,304.4375 16.8906,303.0938 Q16.3438,301.7344 16.3438,299.9375 Q16.3438,297.9063 17,296.4531 Q17.6563,295 18.9375,294.2188 Q20.2188,293.4375 22.0938,293.4375 Q22.9844,293.4375 23.6563,293.625 Q24.3281,293.7969 25.0156,294.1406 L24.2031,296.1563 Q23.5781,295.8438 23.0313,295.7188 Q22.5,295.5938 22.0156,295.5938 Q20.8438,295.5938 20.1406,296.125 Q19.4375,296.6563 19.1406,297.6094 Q18.8438,298.5625 18.8438,299.8281 Q18.8438,301.8438 19.5625,302.8125 Q20.2813,303.7656 21.875,303.7656 Q22.4688,303.7656 23.0938,303.6094 Q23.7188,303.4531 24.5469,303.0781 L24.5469,305.2969 Q23.8125,305.6094 23.0156,305.7656 Q22.2344,305.9219 21.4688,305.9219 Z " fill="#000000"/><text fill="#000000" font-family="sans-serif" font-size="14" lengthAdjust="spacing" textLength="76" x="36" y="303.8467">Coordinate</text></g><!--class Turn--><g id="elem_Turn"><rect fill="#F1F1F1" height="32" id="Turn" rx="2.5" ry="2.5" style="stroke:#181818;stroke-width:0.5;" width="64" x="363" y="191"/><ellipse cx="378" cy="207" fill="#ADD1B2" rx="11" ry="11" style="stroke:#181818;stroke-width:1.0;"/><path d="M377.4688,213.9219 Q375.7188,213.9219 374.5781,213.1875 Q373.4531,212.4375 372.8906,211.0938 Q372.3438,209.7344 372.3438,207.9375 Q372.3438,205.9063 373,204.4531 Q373.6563,203 374.9375,202.2188 Q376.2188,201.4375 378.0938,201.4375 Q378.9844,201.4375 379.6563,201.625 Q380.3281,201.7969 381.0156,202.1406 L380.2031,204.1563 Q379.5781,203.8438 379.0313,203.7188 Q378.5,203.5938 378.0156,203.5938 Q376.8438,203.5938 376.1406,204.125 Q375.4375,204.6563 375.1406,205.6094 Q374.8438,206.5625 374.8438,207.8281 Q374.8438,209.8438 375.5625,210.8125 Q376.2813,211.7656 377.875,211.7656 Q378.4688,211.7656 379.0938,211.6094 Q379.7188,211.4531 380.5469,211.0781 L380.5469,213.2969 Q379.8125,213.6094 379.0156,213.7656 Q378.2344,213.9219 377.4688,213.9219 Z " fill="#000000"/><text fill="#000000" font-family="sans-serif" font-size="14" lengthAdjust="spacing" textLength="32" x="392" y="211.8467">Turn</text></g><!--class Piece--><g id="elem_Piece"><rect fill="#F1F1F1" height="32" id="Piece" rx="2.5" ry="2.5" style="stroke:#181818;stroke-width:0.5;" width="70" x="258" y="191"/><ellipse cx="273" cy="207" fill="#ADD1B2" rx="11" ry="11" style="stroke:#181818;stroke-width:1.0;"/><path d="M272.4688,213.9219 Q270.7188,213.9219 269.5781,213.1875 Q268.4531,212.4375 267.8906,211.0938 Q267.3438,209.7344 267.3438,207.9375 Q267.3438,205.9063 268,204.4531 Q268.6563,203 269.9375,202.2188 Q271.2188,201.4375 273.0938,201.4375 Q273.9844,201.4375 274.6563,201.625 Q275.3281,201.7969 276.0156,202.1406 L275.2031,204.1563 Q274.5781,203.8438 274.0313,203.7188 Q273.5,203.5938 273.0156,203.5938 Q271.8438,203.5938 271.1406,204.125 Q270.4375,204.6563 270.1406,205.6094 Q269.8438,206.5625 269.8438,207.8281 Q269.8438,209.8438 270.5625,210.8125 Q271.2813,211.7656 272.875,211.7656 Q273.4688,211.7656 274.0938,211.6094 Q274.7188,211.4531 275.5469,211.0781 L275.5469,213.2969 Q274.8125,213.6094 274.0156,213.7656 Q273.2344,213.9219 272.4688,213.9219 Z " fill="#000000"/><text fill="#000000" font-family="sans-serif" font-size="14" lengthAdjust="spacing" textLength="38" x="287" y="211.8467">Piece</text></g><!--class Pawn--><g id="elem_Pawn"><rect fill="#F1F1F1" height="32" id="Pawn" rx="2.5" ry="2.5" style="stroke:#181818;stroke-width:0.5;" width="69" x="150.5" y="283"/><ellipse cx="165.5" cy="299" fill="#ADD1B2" rx="11" ry="11" style="stroke:#181818;stroke-width:1.0;"/><path d="M164.9688,305.9219 Q163.2188,305.9219 162.0781,305.1875 Q160.9531,304.4375 160.3906,303.0938 Q159.8438,301.7344 159.8438,299.9375 Q159.8438,297.9063 160.5,296.4531 Q161.1563,295 162.4375,294.2188 Q163.7188,293.4375 165.5938,293.4375 Q166.4844,293.4375 167.1563,293.625 Q167.8281,293.7969 168.5156,294.1406 L167.7031,296.1563 Q167.0781,295.8438 166.5313,295.7188 Q166,295.5938 165.5156,295.5938 Q164.3438,295.5938 163.6406,296.125 Q162.9375,296.6563 162.6406,297.6094 Q162.3438,298.5625 162.3438,299.8281 Q162.3438,301.8438 163.0625,302.8125 Q163.7813,303.7656 165.375,303.7656 Q165.9688,303.7656 166.5938,303.6094 Q167.2188,303.4531 168.0469,303.0781 L168.0469,305.2969 Q167.3125,305.6094 166.5156,305.7656 Q165.7344,305.9219 164.9688,305.9219 Z " fill="#000000"/><text fill="#000000" font-family="sans-serif" font-size="14" lengthAdjust="spacing" textLength="37" x="179.5" y="303.8467">Pawn</text></g><!--class Knight--><g id="elem_Knight"><rect fill="#F1F1F1" height="32" id="Knight" rx="2.5" ry="2.5" style="stroke:#181818;stroke-width:0.5;" width="76" x="255" y="283"/><ellipse cx="270" cy="299" fill="#ADD1B2" rx="11" ry="11" style="stroke:#181818;stroke-width:1.0;"/><path d="M269.4688,305.9219 Q267.7188,305.9219 266.5781,305.1875 Q265.4531,304.4375 264.8906,303.0938 Q264.3438,301.7344 264.3438,299.9375 Q264.3438,297.9063 265,296.4531 Q265.6563,295 266.9375,294.2188 Q268.2188,293.4375 270.0938,293.4375 Q270.9844,293.4375 271.6563,293.625 Q272.3281,293.7969 273.0156,294.1406 L272.2031,296.1563 Q271.5781,295.8438 271.0313,295.7188 Q270.5,295.5938 270.0156,295.5938 Q268.8438,295.5938 268.1406,296.125 Q267.4375,296.6563 267.1406,297.6094 Q266.8438,298.5625 266.8438,299.8281 Q266.8438,301.8438 267.5625,302.8125 Q268.2813,303.7656 269.875,303.7656 Q270.4688,303.7656 271.0938,303.6094 Q271.7188,303.4531 272.5469,303.0781 L272.5469,305.2969 Q271.8125,305.6094 271.0156,305.7656 Q270.2344,305.9219 269.4688,305.9219 Z " fill="#000000"/><text fill="#000000" font-family="sans-serif" font-size="14" lengthAdjust="spacing" textLength="44" x="284" y="303.8467">Knight</text></g><!--class Bishop--><g id="elem_Bishop"><rect fill="#F1F1F1" height="32" id="Bishop" rx="2.5" ry="2.5" style="stroke:#181818;stroke-width:0.5;" width="80" x="366" y="283"/><ellipse cx="381" cy="299" fill="#ADD1B2" rx="11" ry="11" style="stroke:#181818;stroke-width:1.0;"/><path d="M380.4688,305.9219 Q378.7188,305.9219 377.5781,305.1875 Q376.4531,304.4375 375.8906,303.0938 Q375.3438,301.7344 375.3438,299.9375 Q375.3438,297.9063 376,296.4531 Q376.6563,295 377.9375,294.2188 Q379.2188,293.4375 381.0938,293.4375 Q381.9844,293.4375 382.6563,293.625 Q383.3281,293.7969 384.0156,294.1406 L383.2031,296.1563 Q382.5781,295.8438 382.0313,295.7188 Q381.5,295.5938 381.0156,295.5938 Q379.8438,295.5938 379.1406,296.125 Q378.4375,296.6563 378.1406,297.6094 Q377.8438,298.5625 377.8438,299.8281 Q377.8438,301.8438 378.5625,302.8125 Q379.2813,303.7656 380.875,303.7656 Q381.4688,303.7656 382.0938,303.6094 Q382.7188,303.4531 383.5469,303.0781 L383.5469,305.2969 Q382.8125,305.6094 382.0156,305.7656 Q381.2344,305.9219 380.4688,305.9219 Z " fill="#000000"/><text fill="#000000" font-family="sans-serif" font-size="14" lengthAdjust="spacing" textLength="48" x="395" y="303.8467">Bishop</text></g><!--class Rook--><g id="elem_Rook"><rect fill="#F1F1F1" height="32" id="Rook" rx="2.5" ry="2.5" style="stroke:#181818;stroke-width:0.5;" width="68" x="481" y="283"/><ellipse cx="496" cy="299" fill="#ADD1B2" rx="11" ry="11" style="stroke:#181818;stroke-width:1.0;"/><path d="M495.4688,305.9219 Q493.7188,305.9219 492.5781,305.1875 Q491.4531,304.4375 490.8906,303.0938 Q490.3438,301.7344 490.3438,299.9375 Q490.3438,297.9063 491,296.4531 Q491.6563,295 492.9375,294.2188 Q494.2188,293.4375 496.0938,293.4375 Q496.9844,293.4375 497.6563,293.625 Q498.3281,293.7969 499.0156,294.1406 L498.2031,296.1563 Q497.5781,295.8438 497.0313,295.7188 Q496.5,295.5938 496.0156,295.5938 Q494.8438,295.5938 494.1406,296.125 Q493.4375,296.6563 493.1406,297.6094 Q492.8438,298.5625 492.8438,299.8281 Q492.8438,301.8438 493.5625,302.8125 Q494.2813,303.7656 495.875,303.7656 Q496.4688,303.7656 497.0938,303.6094 Q497.7188,303.4531 498.5469,303.0781 L498.5469,305.2969 Q497.8125,305.6094 497.0156,305.7656 Q496.2344,305.9219 495.4688,305.9219 Z " fill="#000000"/><text fill="#000000" font-family="sans-serif" font-size="14" lengthAdjust="spacing" textLength="36" x="510" y="303.8467">Rook</text></g><!--class Queen--><g id="elem_Queen"><rect fill="#F1F1F1" height="32" id="Queen" rx="2.5" ry="2.5" style="stroke:#181818;stroke-width:0.5;" width="79" x="584.5" y="283"/><ellipse cx="599.5" cy="299" fill="#ADD1B2" rx="11" ry="11" style="stroke:#181818;stroke-width:1.0;"/><path d="M598.9688,305.9219 Q597.2188,305.9219 596.0781,305.1875 Q594.9531,304.4375 594.3906,303.0938 Q593.8438,301.7344 593.8438,299.9375 Q593.8438,297.9063 594.5,296.4531 Q595.1563,295 596.4375,294.2188 Q597.7188,293.4375 599.5938,293.4375 Q600.4844,293.4375 601.1563,293.625 Q601.8281,293.7969 602.5156,294.1406 L601.7031,296.1563 Q601.0781,295.8438 600.5313,295.7188 Q600,295.5938 599.5156,295.5938 Q598.3438,295.5938 597.6406,296.125 Q596.9375,296.6563 596.6406,297.6094 Q596.3438,298.5625 596.3438,299.8281 Q596.3438,301.8438 597.0625,302.8125 Q597.7813,303.7656 599.375,303.7656 Q599.9688,303.7656 600.5938,303.6094 Q601.2188,303.4531 602.0469,303.0781 L602.0469,305.2969 Q601.3125,305.6094 600.5156,305.7656 Q599.7344,305.9219 598.9688,305.9219 Z " fill="#000000"/><text fill="#000000" font-family="sans-serif" font-size="14" lengthAdjust="spacing" textLength="47" x="613.5" y="303.8467">Queen</text></g><!--class King--><g id="elem_King"><rect fill="#F1F1F1" height="32" id="King" rx="2.5" ry="2.5" style="stroke:#181818;stroke-width:0.5;" width="62" x="699" y="283"/><ellipse cx="714" cy="299" fill="#ADD1B2" rx="11" ry="11" style="stroke:#181818;stroke-width:1.0;"/><path d="M713.4688,305.9219 Q711.7188,305.9219 710.5781,305.1875 Q709.4531,304.4375 708.8906,303.0938 Q708.3438,301.7344 708.3438,299.9375 Q708.3438,297.9063 709,296.4531 Q709.6563,295 710.9375,294.2188 Q712.2188,293.4375 714.0938,293.4375 Q714.9844,293.4375 715.6563,293.625 Q716.3281,293.7969 717.0156,294.1406 L716.2031,296.1563 Q715.5781,295.8438 715.0313,295.7188 Q714.5,295.5938 714.0156,295.5938 Q712.8438,295.5938 712.1406,296.125 Q711.4375,296.6563 711.1406,297.6094 Q710.8438,298.5625 710.8438,299.8281 Q710.8438,301.8438 711.5625,302.8125 Q712.2813,303.7656 713.875,303.7656 Q714.4688,303.7656 715.0938,303.6094 Q715.7188,303.4531 716.5469,303.0781 L716.5469,305.2969 Q715.8125,305.6094 715.0156,305.7656 Q714.2344,305.9219 713.4688,305.9219 Z " fill="#000000"/><text fill="#000000" font-family="sans-serif" font-size="14" lengthAdjust="spacing" textLength="30" x="728" y="303.8467">King</text></g><!--link Game to Board--><g id="link_Game_Board"><path codeLine="3" d="M151.3178,48.2872 C165.9378,64.9372 177.3013,77.8913 191.8413,94.4513 " fill="none" id="Game-Board" style="stroke:#181818;stroke-width:1.0;"/><polygon fill="#181818" points="143.4,39.27,144.3532,46.4178,151.3178,48.2872,150.3646,41.1393,143.4,39.27" style="stroke:#181818;stroke-width:1.0;"/><polygon fill="#181818" points="195.8,98.96,192.8677,89.5578,192.5011,95.2027,186.8561,94.8361,195.8,98.96" style="stroke:#181818;stroke-width:1.0;"/></g><!--link Game to Coordinate--><g id="link_Game_Coordinate"><path codeLine="4" d="M126.19,39.12 C114.13,87.03 78.3044,229.2714 66.2644,277.1114 " fill="none" id="Game-to-Coordinate" style="stroke:#181818;stroke-width:1.0;stroke-dasharray:7.0,7.0;"/><polygon fill="#181818" points="64.8,282.93,70.8756,275.1784,66.0203,278.0812,63.1175,273.2259,64.8,282.93" style="stroke:#181818;stroke-width:1.0;"/></g><!--link Board to Turn--><g id="link_Board_Turn"><path codeLine="5" d="M250.9314,136.2877 C285.2714,152.9077 323.9893,171.6361 358.3693,188.2761 " fill="none" id="Board-Turn" style="stroke:#181818;stroke-width:1.0;"/><polygon fill="#181818" points="240.13,131.06,243.7881,137.2743,250.9314,136.2877,247.2733,130.0734,240.13,131.06" style="stroke:#181818;stroke-width:1.0;"/><polygon fill="#181818" points="363.77,190.89,357.4116,183.3686,359.2694,188.7117,353.9264,190.5695,363.77,190.89" style="stroke:#181818;stroke-width:1.0;"/></g><!--link Board to Coordinate--><g id="link_Board_Coordinate"><path codeLine="6" d="M196.64,131.2 C168.71,165.55 104.8059,244.1352 77.0059,278.3152 " fill="none" id="Board-to-Coordinate" style="stroke:#181818;stroke-width:1.0;stroke-dasharray:7.0,7.0;"/><polygon fill="#181818" points="73.22,282.97,82.002,278.5118,76.3749,279.091,75.7957,273.4639,73.22,282.97" style="stroke:#181818;stroke-width:1.0;"/></g><!--link Board to Piece--><g id="link_Board_Piece"><path codeLine="7" d="M223.25,131.27 C238.79,147.92 259.4055,170.0142 274.8655,186.5742 " fill="none" id="Board-to-Piece" style="stroke:#181818;stroke-width:1.0;"/><polygon fill="#181818" points="278.96,190.96,275.7422,181.6516,275.5479,187.3052,269.8944,187.1109,278.96,190.96" style="stroke:#181818;stroke-width:1.0;"/></g><!--reverse link Piece to Pawn--><g id="link_Piece_Pawn"><path codeLine="8" d="M260.852,234.7933 C240.872,251.4433 222.92,266.4 203.05,282.96 " fill="none" id="Piece-backto-Pawn" style="stroke:#181818;stroke-width:1.0;"/><polygon fill="none" points="274.68,223.27,257.0109,230.184,264.6931,239.4026,274.68,223.27" style="stroke:#181818;stroke-width:1.0;"/></g><!--reverse link Piece to Knight--><g id="link_Piece_Knight"><path codeLine="9" d="M293,241.27 C293,257.92 293,266.4 293,282.96 " fill="none" id="Piece-backto-Knight" style="stroke:#181818;stroke-width:1.0;"/><polygon fill="none" points="293,223.27,287,241.27,299,241.27,293,223.27" style="stroke:#181818;stroke-width:1.0;"/></g><!--reverse link Piece to Bishop--><g id="link_Piece_Bishop"><path codeLine="10" d="M325.988,234.2765 C346.848,250.8965 366.14,266.25 387.02,282.89 " fill="none" id="Piece-backto-Bishop" style="stroke:#181818;stroke-width:1.0;"/><polygon fill="none" points="311.91,223.06,322.2492,238.9692,329.7268,229.5838,311.91,223.06" style="stroke:#181818;stroke-width:1.0;"/></g><!--reverse link Piece to Rook--><g id="link_Piece_Rook"><path codeLine="11" d="M344.8613,229.0227 C386.6713,245.9727 439.3,267.31 480.72,284.1 " fill="none" id="Piece-backto-Rook" style="stroke:#181818;stroke-width:1.0;"/><polygon fill="none" points="328.18,222.26,342.6071,234.5831,347.1155,223.4623,328.18,222.26" style="stroke:#181818;stroke-width:1.0;"/></g><!--reverse link Piece to Queen--><g id="link_Piece_Queen"><path codeLine="12" d="M345.3791,222.8584 C351.3591,224.5384 340.19,221.4 346,223 C430.8,246.44 530.4,273.1 584.37,287.47 " fill="none" id="Piece-backto-Queen" style="stroke:#181818;stroke-width:1.0;"/><polygon fill="none" points="328.05,217.99,343.7563,228.6348,347.0019,217.082,328.05,217.99" style="stroke:#181818;stroke-width:1.0;"/></g><!--reverse link Piece to King--><g id="link_Piece_King"><path codeLine="13" d="M345.5951,223.2286 C351.4951,224.8386 340.22,221.67 346,223 C493.39,256.97 533.98,247.47 681,283 C686.79,284.4 692.91,286.1 698.79,287.83 " fill="none" id="Piece-backto-King" style="stroke:#181818;stroke-width:1.0;"/><polygon fill="none" points="328.23,218.49,344.0155,229.017,347.1746,217.4402,328.23,218.49" style="stroke:#181818;stroke-width:1.0;"/></g><!--link Piece to Coordinate--><g id="link_Piece_Coordinate"><path codeLine="14" d="M257.76,221.67 C215.17,238.19 149.3337,263.7295 105.2637,280.8295 " fill="none" id="Piece-to-Coordinate" style="stroke:#181818;stroke-width:1.0;stroke-dasharray:7.0,7.0;"/><polygon fill="#181818" points="99.67,283,109.5075,283.4734,104.3314,281.1913,106.6135,276.0152,99.67,283" style="stroke:#181818;stroke-width:1.0;"/></g><!--SRC=[oyXCILL8pIqegLJ8JSrDIYqgvk9oJynDLT3IrRLJSCfFB4g1yFNqx1ISy_EBKZBp4ajIkS0o44KXfKLvK3vMHI0r0PcfoQbSO5B1faPNLo4WiJmFcU-TbvcUKO8iufHPd95VW2mIb9-VZSmFB4rDHJKaCoyToaTp2G00]--></g></svg>