<?xml version="1.0" encoding="us-ascii" standalone="no"?><svg xmlns="http://www.w3.org/2000/svg" xmlns:xlink="http://www.w3.org/1999/xlink" contentStyleType="text/css" height="371px" preserveAspectRatio="none" style="width:534px;height:371px;background:#FFFFFF;" version="1.1" viewBox="0 0 534 371" width="534px" zoomAndPan="magnify"><defs/><g><!--cluster Sistema de Ajedrez--><g id="cluster_Sistema de Ajedrez"><rect fill="none" height="358" rx="2.5" ry="2.5" style="stroke:#181818;stroke-width:1.0;" width="423" x="105" y="7"/><text fill="#000000" font-family="sans-serif" font-size="14" font-weight="bold" lengthAdjust="spacing" textLength="153" x="240" y="21.9951">Sistema de Ajedrez</text></g><g id="elem_UC10"><ellipse cx="187.1191" cy="204.026" fill="#F1F1F1" rx="34.1191" ry="14.526" style="stroke:#181818;stroke-width:0.5;"/><text fill="#000000" font-family="sans-serif" font-size="14" lengthAdjust="spacing" textLength="32" x="170.6725" y="207.0381">Start</text></g><g id="elem_UC11"><ellipse cx="187.0799" cy="268.7511" fill="#F1F1F1" rx="57.0799" ry="14.7511" style="stroke:#181818;stroke-width:0.5;"/><text fill="#000000" font-family="sans-serif" font-size="14" lengthAdjust="spacing" textLength="63" x="152.5799" y="272.4987">Continue</text></g><g id="elem_UC12"><ellipse cx="186.9558" cy="334.0236" fill="#F1F1F1" rx="28.4558" ry="14.5236" style="stroke:#181818;stroke-width:0.5;"/><text fill="#000000" font-family="sans-serif" font-size="14" lengthAdjust="spacing" textLength="24" x="174.9558" y="336.8703">Exit</text></g><g id="elem_UC3"><ellipse cx="187.0868" cy="140.2397" fill="#F1F1F1" rx="55.5868" ry="14.7397" style="stroke:#181818;stroke-width:0.5;"/><text fill="#000000" font-family="sans-serif" font-size="14" lengthAdjust="spacing" textLength="61" x="153.5868" y="143.9873">PutPiece</text></g><g id="elem_UC1"><ellipse cx="186.7655" cy="58.0531" fill="#F1F1F1" rx="65.7655" ry="15.5531" style="stroke:#181818;stroke-width:0.5;"/><text fill="#000000" font-family="sans-serif" font-size="14" lengthAdjust="spacing" textLength="81" x="143.2655" y="61.8007">SelectPiece</text></g><g id="elem_UC4"><ellipse cx="435.3049" cy="268.061" fill="#F1F1F1" rx="70.8049" ry="16.561" style="stroke:#181818;stroke-width:0.5;"/><text fill="#000000" font-family="sans-serif" font-size="14" lengthAdjust="spacing" textLength="95" x="384.8049" y="271.8085">RemovePiece</text></g><g id="elem_UC5"><ellipse cx="435.6781" cy="200.1356" fill="#F1F1F1" rx="71.1781" ry="16.6356" style="stroke:#181818;stroke-width:0.5;"/><text fill="#000000" font-family="sans-serif" font-size="14" lengthAdjust="spacing" textLength="96" x="384.6781" y="203.8832">PromotePawn</text></g><g id="elem_UC6"><ellipse cx="435.6952" cy="131.839" fill="#F1F1F1" rx="69.6952" ry="16.339" style="stroke:#181818;stroke-width:0.5;"/><text fill="#000000" font-family="sans-serif" font-size="14" lengthAdjust="spacing" textLength="92" x="386.6952" y="135.5866">ApplyCastling</text></g><g id="elem_UC7"><ellipse cx="435.5612" cy="63.2122" fill="#F1F1F1" rx="76.5612" ry="17.7122" style="stroke:#181818;stroke-width:0.5;"/><text fill="#000000" font-family="sans-serif" font-size="14" lengthAdjust="spacing" textLength="110" x="377.5612" y="66.9598">ApplyEnPassant</text></g><!--entity J--><g id="elem_J"><ellipse cx="32" cy="174.5" fill="#F1F1F1" rx="8" ry="8" style="stroke:#181818;stroke-width:0.5;"/><path d="M32,182.5 L32,209.5 M19,190.5 L45,190.5 M32,209.5 L19,224.5 M32,209.5 L45,224.5 " fill="none" style="stroke:#181818;stroke-width:0.5;"/><text fill="#000000" font-family="sans-serif" font-size="14" lengthAdjust="spacing" textLength="52" x="6" y="238.9951">Jugador</text></g><!--link J to UC1--><g id="link_J_UC1"><path d="M52.79,165.81 C63.95,146.82 79.22,124.47 97,108 C113.64,92.58 130.4758,82.6659 148.5658,74.0259 " fill="none" id="J-to-UC1" style="stroke:#181818;stroke-width:1.0;"/><polygon fill="#181818" points="153.98,71.44,144.1348,71.7094,149.4682,73.5949,147.5827,78.9283,153.98,71.44" style="stroke:#181818;stroke-width:1.0;"/></g><!--link J to UC3--><g id="link_J_UC3"><path d="M58.21,190.53 C69.87,184.53 83.98,177.57 97,172 C114.81,164.38 129.4365,158.9323 146.1465,153.1823 " fill="none" id="J-to-UC3" style="stroke:#181818;stroke-width:1.0;"/><polygon fill="#181818" points="151.82,151.23,142.0082,150.3761,147.0921,152.8569,144.6113,157.9408,151.82,151.23" style="stroke:#181818;stroke-width:1.0;"/></g><!--link J to UC10--><g id="link_J_UC10"><path d="M58.26,204 C84.15,204 118.53,204 146.94,204 " fill="none" id="J-to-UC10" style="stroke:#181818;stroke-width:1.0;"/><polygon fill="#181818" points="152.94,204,143.94,200,147.94,204,143.94,208,152.94,204" style="stroke:#181818;stroke-width:1.0;"/></g><!--link J to UC11--><g id="link_J_UC11"><path d="M58.24,217.41 C69.9,223.4 84.01,230.36 97,236 C114.69,243.67 129.15,249.2107 145.77,255.1507 " fill="none" id="J-to-UC11" style="stroke:#181818;stroke-width:1.0;"/><polygon fill="#181818" points="151.42,257.17,144.2912,250.3744,146.7117,255.4872,141.5988,257.9077,151.42,257.17" style="stroke:#181818;stroke-width:1.0;"/></g><!--link J to UC12--><g id="link_J_UC12"><path d="M50.88,242.36 C61.78,262.19 77.41,285.44 97,301 C115.45,315.66 135.2368,322.7942 154.2468,327.5142 " fill="none" id="J-to-UC12" style="stroke:#181818;stroke-width:1.0;"/><polygon fill="#181818" points="160.07,328.96,152.2991,322.9091,155.2173,327.7551,150.3713,330.6734,160.07,328.96" style="stroke:#181818;stroke-width:1.0;"/></g><!--link UC1 to UC3--><g id="link_UC1_UC3"><path d="M187,73.65 C187,88.54 187,104.78 187,119.34 " fill="none" id="UC1-to-UC3" style="stroke:#181818;stroke-width:1.0;"/><polygon fill="#181818" points="187,125.34,191,116.34,187,120.34,183,116.34,187,125.34" style="stroke:#181818;stroke-width:1.0;"/><text fill="#000000" font-family="sans-serif" font-size="13" lengthAdjust="spacing" textLength="45" x="153" y="104.0669">include</text></g><!--reverse link UC3 to UC4--><g id="link_UC3_UC4"><path d="M222.537,154.7676 C234.107,160.1676 241.86,164.45 253,172 C267.85,182.06 268.02,189.14 283,199 C314.06,219.45 325.16,218.59 359,234 C373,240.38 388.48,247.36 401.77,253.33 " fill="none" id="UC3-backto-UC4" style="stroke:#181818;stroke-width:1.0;stroke-dasharray:7.0,7.0;"/><polygon fill="#181818" points="217.1,152.23,223.5638,159.661,221.6308,154.3446,226.9472,152.4117,217.1,152.23" style="stroke:#181818;stroke-width:1.0;"/><text fill="#000000" font-family="sans-serif" font-size="13" lengthAdjust="spacing" textLength="44" x="284" y="195.0669">extend</text></g><!--reverse link UC3 to UC5--><g id="link_UC3_UC5"><path d="M233.9796,151.1899 C277.0896,161.6899 339.76,176.94 385.89,188.17 " fill="none" id="UC3-backto-UC5" style="stroke:#181818;stroke-width:1.0;stroke-dasharray:7.0,7.0;"/><polygon fill="#181818" points="228.15,149.77,235.9478,155.7862,233.008,150.9532,237.8409,148.0134,228.15,149.77" style="stroke:#181818;stroke-width:1.0;"/><text fill="#000000" font-family="sans-serif" font-size="13" lengthAdjust="spacing" textLength="44" x="284" y="161.0669">extend</text></g><!--reverse link UC3 to UC6--><g id="link_UC3_UC6"><path d="M248.0969,138.0464 C284.6569,136.8664 327.23,135.48 366.42,134.21 " fill="none" id="UC3-backto-UC6" style="stroke:#181818;stroke-width:1.0;stroke-dasharray:7.0,7.0;"/><polygon fill="#181818" points="242.1,138.24,251.2244,141.9476,247.0974,138.0787,250.9663,133.9518,242.1,138.24" style="stroke:#181818;stroke-width:1.0;"/><text fill="#000000" font-family="sans-serif" font-size="13" lengthAdjust="spacing" textLength="44" x="284" y="132.0669">extend</text></g><!--reverse link UC3 to UC7--><g id="link_UC3_UC7"><path d="M229.0472,127.1812 C272.8472,113.5012 341.82,91.95 389.64,77.01 " fill="none" id="UC3-backto-UC7" style="stroke:#181818;stroke-width:1.0;stroke-dasharray:7.0,7.0;"/><polygon fill="#181818" points="223.32,128.97,233.1032,130.105,228.0926,127.4794,230.7182,122.4688,223.32,128.97" style="stroke:#181818;stroke-width:1.0;"/><text fill="#000000" font-family="sans-serif" font-size="13" lengthAdjust="spacing" textLength="44" x="284" y="93.0669">extend</text></g><!--SRC=[RO_DQiCm48JlUeh5zuIapW-4KWWc5vzCInzWiRQkYhmAqgf9M_hkjTEubcakOfblPdTawKL077ZJl0feuwaMurXXBSv3LiO6jVCPO81IgPuYDvOWUp91g4NG1Fitqfu-C_XI035GZQ4t27gv19-BvI8bXMCn76c0onGUpkOlTPU2Aafbg1vI-UGMsQvPYYSx7wbrxvJYrMIpTwqJgl34LxnEyVvuj1y51h66cwjXyyzmu0f3G1xARzMtKYNCPW-NDiEKZzfY74VU_RbxuDUx0yErZPewBOVx-Rnl3ZkWin3hH5pV4ZUtnEqe_W00]--></g></svg>